<?xml version="1.0" encoding="UTF-8"?>
<svg xmlns="http://www.w3.org/2000/svg" viewBox="0 0 1263.16 1261.54">
  <defs>
    <style>
      .cls-1 {
        fill: #fff;
        stroke: #000;
      }

      .cls-1, .cls-2 {
        stroke-miterlimit: 10;
      }

      .cls-2 {
        stroke: #fff;
      }
    </style>
  </defs>
  <g id="background-white">
    <rect class="cls-1" x="108.15" y="109.31" width="1024.41" height="1022.81"/>
  </g>
  <g id="border-black-thin">
    <path class="cls-2" d="M.5.5v1260.54h1262.16V.5H.5ZM1104.89,1103.47H158.27V158.07h946.62v945.41Z"/>
  </g>
  <g id="text-outline-black-large">
    <g>
      <path d="M298.31,510.84v25.55c27.02-31.94,57.54-47.91,91.58-47.91,36.49,0,62.28,13.84,77.37,41.52,8.07,14.2,12.11,36.55,12.11,67.07v79.84c0,18.1,3.5,27.15,10.53,27.15,1.75,0,4.38-.53,7.89-1.6,1.75-.71,4.38-1.06,7.89-1.06,15.44,0,23.16,9.23,23.16,27.68,0,24.49-10.53,36.73-31.58,36.73-5.62,0-14.04-.72-25.26-2.13-11.23-1.41-19.66-2.13-25.26-2.13-8.78,0-18.08.72-27.9,2.13-9.83,1.41-17.9,2.13-24.21,2.13-20.71,0-31.05-10.82-31.05-32.47,0-18.81,7.19-28.74,21.58-29.81,9.47-.71,14.21-5.14,14.21-13.31v-74.52c0-20.58-2.63-35.04-7.89-43.38-5.26-8.33-14.21-12.51-26.84-12.51-14.39,0-26.24,4.97-35.53,14.9-9.3,9.94-13.95,22.54-13.95,37.79v55.36c0,15.97.7,25.64,2.11,29.01,1.4,3.38,5.44,5.59,12.11,6.65,12.63,1.78,18.95,11.36,18.95,28.74,0,22.36-9.3,33.53-27.9,33.53-5.26,0-11.76-.53-19.47-1.6-12.99-1.77-22.63-2.66-28.95-2.66s-15.71.72-28.16,2.13c-12.46,1.41-21.84,2.13-28.16,2.13-22.11,0-33.16-11.89-33.16-35.66,0-19.87,8.42-29.81,25.26-29.81,2.8,0,5.96.62,9.47,1.86,3.5,1.25,6.14,1.86,7.9,1.86,5.96,0,8.95-9.93,8.95-29.81v-86.23c0-20.23-2.98-30.34-8.95-30.34-1.41,0-4.13.62-8.16,1.86-4.04,1.25-7.11,1.86-9.21,1.86-16.84,0-25.26-9.76-25.26-29.28,0-10.65,2.89-19.34,8.68-26.08,5.79-6.74,13.42-10.11,22.9-10.11,2.8,0,8.77.89,17.9,2.66,5.26,1.06,9.82,1.6,13.68,1.6,4.21,0,11.4-.71,21.58-2.13,10.17-1.41,15.79-2.13,16.84-2.13,9.47,0,14.21,4.97,14.21,14.9Z"/>
      <path d="M780.44,772.72c-28.78,0-48.08-11.71-57.89-35.13-24.57,23.42-53.69,35.13-87.37,35.13-27.72,0-49.83-7.37-66.32-22.09-16.5-14.72-24.74-34.33-24.74-58.82,0-37.26,15.96-61.39,47.9-72.39,13.68-4.61,29.47-8.52,47.37-11.71,24.91-4.26,41.84-9.13,50.79-14.64,8.95-5.5,13.42-13.92,13.42-25.28,0-8.16-3.42-14.99-10.26-20.49-6.84-5.5-15.35-8.25-25.52-8.25-11.58,0-17.37,3.73-17.37,11.18,0,2.49.18,4.97.53,7.45v2.13c0,9.94-4.13,18.28-12.37,25.02-8.25,6.75-18.51,10.11-30.79,10.11-14.04,0-25.62-4.26-34.74-12.78-9.13-8.52-13.68-19.16-13.68-31.94,0-19.16,10-34.24,30-45.24,20-10.99,47.54-16.5,82.63-16.5,37.9,0,66.14,5.86,84.74,17.57,20,12.77,30,36.55,30,71.33v110.18c0,11.36,2.8,17.03,8.42,17.03,2.8,0,5.44-.17,7.89-.53,1.05-.35,2.28-.53,3.69-.53,8.07,0,14.91,2.84,20.53,8.52,5.61,5.68,8.42,12.6,8.42,20.76,0,11.71-5.18,21.29-15.52,28.74-10.36,7.45-23.6,11.18-39.74,11.18ZM589.9,429.93c0-19.51,9.65-29.63,28.95-30.34,8.07,0,20.35.36,36.85,1.06,19.64.72,32.28,1.06,37.89,1.06,7.02,0,17.37-.35,31.05-1.06,13.69-.71,24.03-1.06,31.06-1.06,22.8,0,34.21,10.11,34.21,30.34s-10.88,30.87-32.63,30.87c-7.37,0-18.6-.44-33.68-1.33-15.09-.88-26.32-1.33-33.69-1.33s-19.04.45-33.95,1.33c-14.92.89-26.24,1.33-33.95,1.33-21.41,0-32.11-10.29-32.11-30.87ZM704.12,658.82v-11.71c-2.46,1.42-17.89,5.86-46.31,13.31-19.3,4.97-28.95,12.6-28.95,22.89,0,16.33,9.47,24.49,28.42,24.49,31.22,0,46.84-16.32,46.84-48.97Z"/>
      <path d="M962.55,568.86v21.82l-.53,33-1.05,35.66c-.35,11.71-.53,16.5-.53,14.37,0,20.94,6.66,31.41,20,31.41,12.63,0,18.95-9.4,18.95-28.21,0-2.84-.18-4.96-.53-6.39v-6.92c-.35-2.48-.53-4.26-.53-5.32,0-19.16,9.48-28.74,28.42-28.74,22.11,0,33.16,17.92,33.16,53.76,0,28.04-8.25,49.95-24.74,65.74-16.5,15.78-39.48,23.69-68.95,23.69-57.9,0-86.85-30.87-86.85-92.62,0-9.93.44-24.83,1.32-44.71.87-19.87,1.32-34.77,1.32-44.71v-17.03c0-8.87-.79-14.46-2.37-16.77-1.58-2.3-5.35-3.46-11.32-3.46h-8.42c-6.67,0-12.11-2.57-16.32-7.72-4.21-5.14-6.32-11.79-6.32-19.96s2.19-15.17,6.58-21.03c4.38-5.85,9.56-8.78,15.53-8.78h10c8.42,0,13.33-2.48,14.74-7.45,1.05-2.84,1.58-7.63,1.58-14.37v-26.08c0-12.42,3.24-20.93,9.74-25.55,6.49-4.61,18.33-6.92,35.53-6.92,12.28,0,20.61,1.78,25,5.32,4.38,3.55,6.58,11.36,6.58,23.42v28.74c0,10.3.96,16.68,2.89,19.16,1.92,2.49,6.93,3.73,15,3.73h37.9c20.7,0,31.05,9.76,31.05,29.28s-9.47,28.21-28.42,28.21h-43.16c-7.37,0-11.76,1.25-13.16,3.73-1.41,2.49-2.11,6.39-2.11,11.71Z"/>
    </g>
  </g>
</svg>